PathFileType	4	(X/Y/Z)	/Users/mathieubourgeois/Desktop/Analyse/Traitement/Sujet_04/Data/Transformed_Sujet_04_velo_100.trc
DataRate	CameraRate	NumFrames	NumMarkers	Units	OrigDataRate	OrigDataStartFrame	OrigNumFrames
120.000000	120.000000	4	36	mm	120.000000	730	1948
Frame#	Time	RFHD			RANE			STRN			LANI			LKNE			T10			RHUM			RWRB			C7			LFWT			LTOE			RTOE			LWRA			LBWT			RBWT			RFWT			LKNI			RKNI			RKNE			LANE			RANI			LHEE			RHEE			LHUM			LRAD			RRAD			RWRA			LWRB			LFHD			LBHD			RBHD			RSHO			LSHO			CLAV			LCAR			RCAR			
		X1	Y1	Z1	X2	Y2	Z2	X3	Y3	Z3	X4	Y4	Z4	X5	Y5	Z5	X6	Y6	Z6	X7	Y7	Z7	X8	Y8	Z8	X9	Y9	Z9	X10	Y10	Z10	X11	Y11	Z11	X12	Y12	Z12	X13	Y13	Z13	X14	Y14	Z14	X15	Y15	Z15	X16	Y16	Z16	X17	Y17	Z17	X18	Y18	Z18	X19	Y19	Z19	X20	Y20	Z20	X21	Y21	Z21	X22	Y22	Z22	X23	Y23	Z23	X24	Y24	Z24	X25	Y25	Z25	X26	Y26	Z26	X27	Y27	Z27	X28	Y28	Z28	X29	Y29	Z29	X30	Y30	Z30	X31	Y31	Z31	X32	Y32	Z32	X33	Y33	Z33	X34	Y34	Z34	X35	Y35	Z35	X36	Y36	Z36	

731	6.083333333333333	331.6613464355469	1454.84765625	22.66292953491206	-349.4031677246094	367.3357849121094	128.4769134521484	-53.35710525512695	1216.3349609375	-37.51352691650398	-61.69202041625975	522.422607421875	-127.8146896362305	68.07740783691409	932.329833984375	-239.910873413086	-186.3253021240234	1442.4716796875	-31.15342712402355	88.8148498535156	1075.179077148438	179.6834716796874	311.563720703125	910.2937622070312	228.2468872070312	80.85952758789062	1500.237670898438	-28.20157814025887	-233.7354736328125	1174.882934570312	-159.4950714111329	113.6250076293945	435.9841003417969	-157.8007049560547	-177.5850524902344	207.2528991699219	67.76416015624996	322.12646484375	943.0535278320312	-212.9543914794922	-397.5248718261719	1268.106567382812	-91.82946777343761	-405.8619995117188	1258.217041015625	40.96483993530261	-247.8031768798828	1176.055419921875	125.2220001220702	82.45838928222658	894.6253051757812	-121.1417922973633	-75.85872650146484	696.4361572265625	37.82185745239253	-71.88354492187501	734.4933471679688	153.947525024414	-97.76473236083982	508.4153137207031	-220.9480743408203	-316.1378784179688	363.7080383300781	37.22827529907221	-150.8277587890625	488.3644104003906	-167.1779327392579	-400.5227661132812	376.4388122558594	85.4450378417968	82.239372253418	1080.689453125	-249.7262268066407	120.9894104003907	1101.554931640625	-310.0002441406251	131.3631286621093	1095.866943359375	232.0998992919922	317.7378845214844	917.5755615234375	153.2529754638672	285.0673828125001	890.3753051757812	-260.8993225097656	313.204833984375	1456.833984375	-106.4301300048829	199.4858093261719	1574.955444335938	-78.36556243896491	218.3430328369141	1562.512817382812	61.28966903686517	87.1658477783203	1420.299682617188	132.4199981689452	98.54655456542972	1422.683715820312	-200.8441925048829	67.13175964355469	1333.795288085938	-38.70051956176765	397.3813171386719	918.7265014648438	-294.4407348632812	402.5126342773437	933.8378295898438	235.7864990234375	
732	6.091666666666667	329.7578430175781	1454.561645507812	24.96372795104975	-352.9674377441406	383.8728332519531	130.2590026855468	-54.21223068237304	1216.086181640625	-37.28117752075203	-55.1268844604492	507.5422668457031	-129.1317291259766	65.75954437255862	921.9004516601562	-239.0926513671876	-187.2125396728516	1442.085815429688	-31.81582260131847	87.3334045410156	1075.163452148438	180.5862426757812	314.0584411621094	910.2564697265625	226.3517913818359	79.923828125	1500.054077148438	-27.94160842895516	-233.4317626953125	1173.0029296875	-160.7277832031251	121.3283004760742	421.6894836425781	-157.9152374267578	-186.2557220458984	219.9427642822266	67.74182128906246	321.9032897949219	943.0394897460938	-213.1589508056641	-398.1684875488281	1266.8642578125	-93.11811828613293	-406.8043518066406	1257.619995117188	39.6670112609862	-248.5827789306641	1176.620361328125	125.0728149414062	80.19069671630861	882.578369140625	-121.8744583129883	-68.33929443359375	703.6565551757812	39.14428710937495	-63.82054519653322	741.3040161132812	155.4469909667968	-90.24320983886716	492.9780883789062	-222.6988983154297	-320.3121643066406	379.8062438964844	38.84450149536126	-143.4175872802734	472.6098937988281	-169.3458709716797	-405.3610534667969	395.4259948730469	87.9503097534179	81.97441864013675	1080.620971679688	-249.8169555664063	120.6837463378907	1101.562744140625	-310.0655822753907	131.1378479003906	1095.8447265625	232.0446472167968	299.22265625	921.3876953125	156.1542358398437	284.6358032226563	890.5298461914062	-261.6666870117188	312.4165344238281	1456.777099609375	-105.8994750976563	198.80712890625	1574.879272460938	-77.90954589843757	217.5349273681641	1562.331298828125	61.77050399780267	86.15343475341795	1420.136108398438	132.8578033447265	98.07000732421878	1422.618774414062	-200.5233001708985	66.39093780517578	1333.65283203125	-38.46313476562507	397.1127319335938	918.7996215820312	-294.6800231933594	402.4699707031249	934.01123046875	235.5467376708984	
733	6.1	328.7259216308594	1454.293701171875	25.74642372131343	-355.2532348632812	400.7814025878906	131.9640197753905	-55.08481216430663	1215.83154296875	-37.0885314941407	-48.60340499877928	492.51025390625	-129.0943298339844	61.28425216674808	911.4201049804688	-238.5594329833985	-188.0968322753906	1441.626708984375	-32.52536392211925	88.91864013671872	1075.024658203125	179.2142791748046	314.0567016601562	910.3480224609375	226.2333679199218	78.89096069335938	1499.822387695312	-27.52749443054207	-233.4493560791015	1171.314453125	-161.4278717041017	127.7371978759766	406.2220458984375	-158.0074920654297	-193.4065246582031	233.4284820556641	67.67938995361324	321.6842956542969	943.0105590820312	-213.2912750244141	-398.8450622558594	1265.467407226562	-94.17791748046886	-407.7120971679688	1256.842407226562	38.56852340698229	-249.2989044189453	1177.078002929688	124.775405883789	76.28706359863283	871.2652587890625	-121.4741668701172	-60.49453735351563	711.4635620117188	40.51627731323237	-55.43389129638674	748.633544921875	157.0831451416015	-83.75703430175778	477.2146606445312	-224.5871887207032	-323.1178894042969	396.4139709472656	40.37055969238275	-137.0501098632812	456.6602478027344	-171.6345214843751	-407.75	413.895751953125	89.89903259277335	81.66950988769534	1080.515625	-249.9431610107422	120.4180297851563	1101.527587890625	-310.1242980957032	130.8678283691406	1095.74755859375	232.0510711669922	294.6585388183594	922.1891479492188	155.9872283935547	284.4654541015626	890.4567260742188	-261.8317260742188	311.6788024902344	1456.672729492188	-105.1868667602539	198.0316162109375	1574.745361328125	-77.26882171630866	216.5124206542969	1562.140991210938	62.4185714721679	85.0373077392578	1419.90234375	133.1814422607421	97.52431488037112	1422.530151367188	-200.1730957031251	65.61489868164062	1333.480102539062	-38.21677398681648	396.9037170410157	918.8565063476562	-294.8521423339844	402.4080200195312	934.1650390625	235.3894958496094	
734	6.108333333333333	327.7130126953125	1454.1904296875	26.64830207824702	-356.4217224121094	417.8804931640625	133.4240112304687	-56.03337478637695	1215.4599609375	-36.956340789795	-43.77063369750975	478.2081909179688	-131.5924835205078	57.05727005004886	899.209228515625	-237.5202331542969	-188.9384765625	1441.129272460938	-33.24125289917003	88.04669952392575	1074.644653320312	179.7901611328124	315.2360229492188	908.8042602539062	223.3809051513672	77.90254974365234	1499.567504882812	-27.17854309082039	-233.4613494873047	1169.50390625	-161.8036651611329	132.871322631836	389.981689453125	-158.2014617919922	-198.9746551513672	247.4926452636719	67.83378601074214	321.5070495605469	942.9862670898438	-213.3745269775391	-399.5109252929688	1263.9931640625	-95.08381652832043	-408.6137084960938	1256.003051757812	37.6833572387694	-249.9258728027344	1177.431030273438	124.5267333984374	78.65046691894533	858.753173828125	-120.73876953125	-52.55251693725587	719.6629638671875	42.04696655273433	-47.02910614013674	756.5123291015625	158.8944091796874	-78.33770751953122	461.2824096679688	-226.4151306152344	-333.9233703613281	414.0597839355469	42.28422164916985	-131.3935089111328	440.1985473632812	-173.8640289306641	-408.9112854003906	432.4107055664062	91.64856719970695	81.3763122558594	1080.312377929688	-250.0836486816407	120.1633682250977	1101.41650390625	-310.1875305175782	130.537612915039	1095.528930664062	232.0710296630859	294.038330078125	922.4521484375	155.898193359375	284.3394775390626	890.3677978515625	-261.9418334960938	311.03857421875	1456.68896484375	-104.35986328125	197.2228393554688	1574.598266601562	-76.58318328857429	215.3418273925781	1561.9345703125	63.08964920043939	83.85934448242186	1419.600952148438	133.6276550292968	97.04106140136722	1422.336547851562	-199.7838134765626	64.90110015869141	1333.192504882812	-37.98259735107429	396.7567138671876	918.92041015625	-294.9742736816406	402.3124694824218	934.3034057617188	235.2769317626953	
